<?xml version="1.0" standalone="no"?>
<!DOCTYPE svg PUBLIC "-//W3C//DTD SVG 20010904//EN"
 "http://www.w3.org/TR/2001/REC-SVG-20010904/DTD/svg10.dtd">
<svg version="1.0" xmlns="http://www.w3.org/2000/svg"
 width="678.000000pt" height="256.000000pt" viewBox="0 0 678.000000 256.000000"
 preserveAspectRatio="xMidYMid meet">

<g transform="translate(0.000000,256.000000) scale(0.100000,-0.100000)"
fill="#000000" stroke="none">
<path d="M2020 1270 l0 -1180 538 0 c680 1 751 9 973 120 295 146 505 392 607
710 27 84 31 107 46 243 29 267 -43 536 -206 781 -58 86 -228 250 -325 313
-46 29 -85 53 -87 53 -3 0 -39 16 -81 35 -98 46 -247 83 -355 90 -47 2 -316 7
-597 10 l-513 6 0 -1181z m1180 1074 c383 -67 699 -329 837 -694 111 -292 91
-601 -58 -893 -137 -268 -417 -488 -704 -550 -145 -32 -276 -38 -725 -35
l-445 3 -3 1092 -2 1092 52 3 c29 2 258 2 508 0 349 -2 475 -6 540 -18z"/>
<path d="M2230 1275 l0 -965 466 0 c441 0 470 1 552 21 425 105 732 492 732
924 0 327 -146 617 -404 799 -68 48 -174 106 -194 106 -8 0 -26 7 -40 14 -42
23 -148 45 -242 51 -47 2 -262 7 -477 10 l-393 6 0 -966z m952 856 c172 -30
326 -111 448 -236 85 -87 90 -94 121 -141 137 -209 179 -459 118 -704 -82
-331 -368 -597 -699 -649 -37 -6 -236 -11 -457 -11 l-393 0 0 880 0 880 378 0
c320 -1 393 -3 484 -19z"/>
<path d="M2450 1270 l0 -751 368 3 c353 4 369 5 432 27 132 47 227 108 317
204 166 178 237 427 188 665 -47 229 -205 433 -410 528 -143 65 -154 67 -542
72 l-353 4 0 -752z m775 636 c125 -46 217 -109 308 -213 46 -53 125 -198 132
-244 2 -13 9 -44 15 -69 16 -60 6 -219 -18 -295 -39 -122 -83 -195 -172 -285
-89 -90 -150 -129 -270 -171 -61 -21 -84 -23 -372 -27 l-308 -4 0 665 c0 365
2 666 4 668 2 2 145 2 318 -1 270 -5 320 -8 363 -24z"/>
<path d="M1110 2430 c-245 -33 -469 -146 -651 -329 -247 -246 -363 -551 -345
-903 21 -418 259 -785 633 -975 273 -140 568 -168 853 -81 93 28 210 78 210
89 0 11 -29 69 -34 69 -2 0 -33 -13 -69 -30 -92 -42 -194 -69 -321 -85 -311
-39 -640 77 -867 306 -160 161 -251 328 -306 564 -20 85 -23 320 -4 410 103
503 514 865 1012 892 164 9 363 -31 510 -102 29 -14 54 -25 55 -25 2 0 11 16
20 36 20 42 21 41 -76 82 -191 80 -415 110 -620 82z"/>
<path d="M4595 2430 c-188 -39 -324 -164 -379 -349 -9 -30 -16 -67 -16 -83 l0
-28 110 0 c80 0 112 -4 115 -13 3 -7 6 -433 8 -947 l2 -935 40 0 40 0 3 948 2
947 60 0 c41 0 60 -4 60 -12 0 -7 1 -434 3 -948 l2 -935 40 0 40 0 5 945 5
945 65 0 65 0 3 -947 2 -948 40 0 40 0 0 934 c0 514 3 941 6 950 5 13 25 16
111 16 l105 0 -7 48 c-10 74 -27 123 -61 182 -100 171 -317 269 -509 230z"/>
<path d="M5280 1256 l0 -1166 688 2 687 3 3 38 3 37 -638 0 c-351 0 -644 4
-650 8 -10 6 -13 246 -15 1123 l-3 1114 -37 3 -38 3 0 -1165z"/>
<path d="M5488 2283 c-3 -76 -5 -550 -4 -1053 l1 -915 588 -3 587 -2 0 45 0
45 -540 0 -540 0 0 994 c0 547 -3 1001 -6 1010 -4 11 -19 16 -44 16 l-37 0 -5
-137z"/>
<path d="M5710 1480 c0 -511 -1 -933 -2 -937 -2 -5 212 -9 475 -11 l477 -2 0
45 0 45 -422 -2 c-233 -1 -429 1 -435 5 -10 7 -13 197 -13 898 l0 889 -40 0
-40 0 0 -930z"/>
<path d="M1128 2219 c-196 -29 -442 -161 -560 -301 -179 -213 -257 -431 -245
-688 4 -69 13 -153 22 -188 85 -353 361 -628 713 -712 82 -20 112 -22 245 -18
143 5 159 7 265 43 63 21 116 44 119 51 4 10 -22 74 -30 74 -2 0 -22 -9 -44
-20 -97 -47 -190 -64 -343 -65 -153 0 -191 7 -329 61 -205 80 -397 280 -480
499 -33 88 -61 228 -61 309 0 70 25 219 48 286 84 243 282 450 514 537 216 81
430 77 649 -12 l58 -23 16 30 c17 35 14 43 -26 64 -131 67 -358 99 -531 73z"/>
<path d="M1135 2006 c-91 -18 -176 -53 -267 -111 -89 -57 -137 -102 -193 -180
-104 -145 -139 -262 -140 -455 0 -137 8 -181 46 -266 11 -22 19 -45 19 -51 0
-25 104 -165 169 -226 78 -73 167 -127 274 -165 66 -24 85 -26 227 -26 140 1
162 3 230 26 41 15 75 28 74 30 -5 29 -26 68 -36 68 -7 0 -42 -9 -78 -21 -91
-28 -227 -35 -320 -15 -235 49 -443 247 -506 479 -23 86 -28 222 -11 304 20
90 75 210 130 281 86 112 243 212 378 242 36 8 99 11 175 8 97 -4 132 -10 187
-32 l67 -26 20 33 c11 17 20 35 20 38 0 4 -42 20 -93 37 -114 38 -262 49 -372
28z"/>
</g>
</svg>
